<svg xmlns="http://www.w3.org/2000/svg" viewBox="0 0 369.98 407.31"><defs><style>.cls-1{fill:#00ccbc;}</style></defs><g id="Layer_2" data-name="Layer 2"><g id="Layer_1-2" data-name="Layer 1"><path class="cls-1" d="M266.79,0l-19,179.6L215.45,28.19,114,49.65l32.35,151.41L0,232l25.84,121,257.3,54.38L342,275.89,370,10.8,266.78,0Zm-81.3,260.54c-5.31,4.83-12.32,4.38-19.76,1.92s-10.74-11.39-7.92-22.19c2.1-8,12-9.23,16.91-9.31a12.63,12.63,0,0,1,5.42,1.11c3.49,1.57,9.4,4.93,10.61,10,1.72,7.38.06,13.58-5.25,18.41h0ZM260,268.88c-3.86,6.66-14,7.54-23.93,2.7-6.71-3.27-6.66-11.6-5.92-16.67a15.67,15.67,0,0,1,3.25-7.57c2.39-3,6.39-7,11-7.08,7.51-.2,14,3.16,17.64,9.23s1.83,12.72-2,19.39Z"/></g></g></svg>