<?xml version="1.0" encoding="utf-8"?>
<!-- Generator: Adobe Illustrator 25.2.0, SVG Export Plug-In . SVG Version: 6.00 Build 0)  -->
<svg version="1.0" id="Layer_1" xmlns="http://www.w3.org/2000/svg" xmlns:xlink="http://www.w3.org/1999/xlink" x="0px" y="0px"
	 viewBox="0 0 574.6 577" style="enable-background:new 0 0 574.6 577;" xml:space="preserve">
<style type="text/css">
	.st0{fill:#AA4627;}
</style>
<g id="Layer_2_1_">
	<g id="Layer_1-2">
		<path class="st0" d="M268,5.6c11.1-7.4,25.6-7.4,36.7,0c28.3,17.8,55.5,37.4,81.4,58.6c0,0,7,4.9,7.2-3.4
			c-0.7-10.7-0.1-21.4,1.9-31.9c2.1-5.6,7.5-9.4,13.5-9.4c0,0,32,1.6,52.2,4.3c9.1,1.2,16.1,8.5,17.1,17.6c0,0,13,87,16,118.4
			c0,0,2.5,16,25.6,43c0,0,47,65.8,52.4,78.4c0,0,10.9,22.8-12.6,25.8c0,0-42.8,4.3-47,5.3c-5.8,0.7-9.9,5.9-9.4,11.6
			c0,0-2.2,151.4-13.3,224.1c0,0-2.9,28.9-18.8,28.2c0,0-44.1-1.4-54.3-1.1c0,0-4.4,0-3.8-5.9c0,0,22.4-236,7.2-355.3
			c0,0-0.7-15.4-12.4-18.8c0,0-10.7-4.3-21,9.4c-44.4,62.2-68.8,136.5-69.7,213c0,0-1.2,37.6,4.5,47c0,0,3.5,6.6,21.8,8.1l23.1,3.1
			c0,0,4.2,0,3.8,5.6c0,0-5.2,69.3-6.7,81.6c-0.1,2.8-0.7,5.6-1.7,8.2c0,0-0.8,2.4-8.1,2.1c0,0-101.8-0.7-113.3,0c0,0-4.8,0-5.8-2.5
			s-7.1-89.4-6.9-101.6c-0.2-2.5,1.2-4.9,3.6-6c15.7-9.9,26.1-26.5,28.2-45c1.2-13.2,1.4-26.4,0.6-39.6c0,0,3.8-132.8,4.7-154.1
			c0,0,0.7-7.2-8.7-8.5c-4.7-1.1-9.4,1.7-10.5,6.4v0.7c0,0.8-6.6,87.6-5.4,122.1c0,0,2.3,22.6-13.4,23.1c0,0-15.2,2.3-16-16.6
			c0,0,1.1-85.1,4.9-127.2c-0.1-5.3-4.5-9.4-9.7-9.3c-4.4,0.1-8.2,3.2-9.1,7.5c-0.1,0.2-0.1,0.5,0,0.7c0,0-6.6,81.5-5.4,124.5
			c0,0,1.9,20.9-14.8,20.1c0,0-13.9,1.6-14.6-16.9c0,0,3.8-116.6,4.8-125.6c-0.3-4.6-3.8-8.3-8.4-8.8h-1c-4.9-0.4-9.2,3-10.1,7.8
			c0,0.3,0,0.6,0,0.8c0,0-6.2,139.4-5.3,180.4c0,0-0.6,42.1,30.5,59.2c0,0,4.6,2.6,4.7,6.7c0,0,3.5,73.9,6.7,97.8
			c0,0,1.1,5.7-3.9,5.7L102,577c-8.5,0-15.5-6.7-16-15.2c-10.1-78.4-15-157.3-14.4-236.3c0.6-6-3.5-11.6-9.4-12.9
			c0,0-40-3.7-49.7-6.1c-8.9-2.3-14.2-11.4-11.9-20.3c0,0,0,0,0,0c0.4-1.5,1-2.9,1.8-4.2C67.3,169.8,158.5,75,268,5.6z"/>
	</g>
</g>
</svg>
