<svg id="Layer_1" data-name="Layer 1" xmlns="http://www.w3.org/2000/svg" viewBox="0 0 353.04 353.04"><defs><style>.cls-1{fill:#00ccbc;}.cls-2{fill:#fcfcfc;}.cls-3{fill:#fff;}</style></defs><g id="Layer_2" data-name="Layer 2"><g id="Squircles"><path class="cls-1" d="M78,27.14H292a69.53,69.53,0,0,1,69.54,69.53v214A69.53,69.53,0,0,1,292,380.17H78A69.53,69.53,0,0,1,8.48,310.64v-214A69.51,69.51,0,0,1,78,27.14Z" transform="translate(-8.48 -27.14)"/><path class="cls-2" d="M177.68,263.71a18.34,18.34,0,1,0-18.56,18.12h.22A18.11,18.11,0,0,0,177.68,264v-.28m15-29.62v59.44H177.4v-5.35a30,30,0,0,1-19.23,6.69,31.21,31.21,0,1,1-1.66-62.39,15.32,15.32,0,0,1,1.66,0,30.23,30.23,0,0,1,19.31,6.87v-5.29h15.17ZM243.28,280H231.83c-3.49,0-5.76-1.53-5.76-4.66V247.48h17.21V234.09H226.13V217.15H210.71v16.94H199.14v13.45h11.6v31.59c0,8,5.76,14.29,16.09,14.29h16.51ZM278,295c17.62,0,27.55-8.24,27.55-19.64,0-8.11-5.86-14.16-18.19-16.75l-13-2.62c-7.55-1.37-9.93-2.76-9.93-5.49,0-3.6,3.63-5.78,10.34-5.78,7.26,0,12.61,1.94,14.13,8.51h15.25c-.84-12.36-9.95-20.59-28.42-20.59-15.93,0-27.15,6.46-27.15,19,0,8.64,6.17,14.29,19.46,17.05l14.54,3.3c5.72,1.09,7.25,2.59,7.25,4.93,0,3.71-4.39,6.06-11.35,6.06-8.81,0-13.85-1.91-15.79-8.51H247.3C249.59,286.71,259,295,278,295M64.35,213h57.51v13.72h-42v19.67h40.87v13.2H79.87v19.81h42v13.75H64.35Z" transform="translate(-8.48 -27.14)"/><path class="cls-3" d="M304.28,143.41V132.63h-4.09a16,16,0,0,0-14.32,7.69v-7.23h-11.7v58.52H286V158.33c0-9.06,5.62-14.92,13.34-14.92Zm-84.89,13.64a18.53,18.53,0,0,1,36.36,0ZM237.88,132a30.37,30.37,0,0,0-30.63,30.12v.3c0,17.46,13.8,30.52,31.7,30.52a31.46,31.46,0,0,0,25.72-12.49l-8.54-6.22A20.53,20.53,0,0,1,239,182.8a19.78,19.78,0,0,1-19.8-16.64h48.37v-3.82c0-17.43-12.61-30.39-29.82-30.39m-67.3,50.85a20.44,20.44,0,1,1,.05,0h-.05m-32.06,8.81h11.71v-7.37a30.09,30.09,0,0,0,21.28,8.82A30.6,30.6,0,1,0,173,131.89c-.54,0-1.09,0-1.63,0a29.8,29.8,0,0,0-21.17,8.82V111.27H138.36ZM96.73,182.2c11.35,0,20.11-8.62,20.11-21.33v-49.6h12.28v80.34H117v-7.47A29.84,29.84,0,0,1,95.34,193c-17.62,0-31-12.52-31-31.46V111.27H76.74v49.6c0,12.95,8.65,21.33,20.13,21.33" transform="translate(-8.48 -27.14)"/></g></g></svg>