<svg xmlns="http://www.w3.org/2000/svg" viewBox="0 0 574.64 576.97"><defs><style>.cls-1{fill:#00b0ad;}</style></defs><g id="Layer_2" data-name="Layer 2"><g id="Layer_1-2" data-name="Layer 1"><path class="cls-1" d="M268,5.57a33.07,33.07,0,0,1,36.74,0A797.93,797.93,0,0,1,386.09,64.2s7.05,4.88,7.24-3.39a129,129,0,0,1,1.88-31.93,14.56,14.56,0,0,1,13.52-9.4s31.95,1.6,52.24,4.32a19.83,19.83,0,0,1,17.1,17.57s13.05,87,16,118.37c0,0,2.52,16,25.65,43,0,0,47,65.77,52.42,78.35,0,0,10.89,22.75-12.59,25.84,0,0-42.85,4.32-47,5.27a10.71,10.71,0,0,0-9.4,11.64s-2.25,151.36-13.33,224.07c0,0-2.91,28.86-18.79,28.19,0,0-44.07-1.4-54.31-1.12,0,0-4.41,0-3.75-5.92,0,0,22.44-236,7.23-355.32,0,0-.66-15.41-12.4-18.8,0,0-10.71-4.32-20.95,9.4a374.34,374.34,0,0,0-69.71,213s-1.23,37.58,4.51,47c0,0,3.55,6.59,21.8,8.08l23.1,3.11s4.23,0,3.84,5.62c0,0-5.25,69.25-6.74,81.57a24.48,24.48,0,0,1-1.71,8.16s-.84,2.36-8.07,2.08c0,0-101.84-.74-113.31,0,0,0-4.79,0-5.81-2.54s-7.06-89.35-6.87-101.65a6.13,6.13,0,0,1,3.57-6,61.26,61.26,0,0,0,28.19-45,248.86,248.86,0,0,0,.56-39.56s3.76-132.75,4.71-154.09c0,0,.74-7.23-8.66-8.53A8.75,8.75,0,0,0,245.73,222v.74c0,.75-6.57,87.57-5.36,122.13,0,0,2.27,22.64-13.42,23.12,0,0-15.22,2.26-16-16.62,0,0,1.13-85.13,4.88-127.21A9.52,9.52,0,0,0,197,222.41a1.54,1.54,0,0,0,0,.74s-6.59,81.47-5.37,124.5c0,0,1.88,20.86-14.76,20.09,0,0-13.91,1.6-14.65-16.91,0,0,3.76-116.58,4.8-125.6a9.4,9.4,0,0,0-8.36-8.83h-1a9.41,9.41,0,0,0-10.06,7.8,3.93,3.93,0,0,0,0,.84s-6.19,139.42-5.34,180.38c0,0-.56,42.1,30.52,59.19,0,0,4.61,2.63,4.71,6.67,0,0,3.48,73.94,6.66,97.81,0,0,1.14,5.72-3.94,5.72L102,577a16.09,16.09,0,0,1-16-15.22A1752.75,1752.75,0,0,1,71.55,325.47a12,12,0,0,0-9.39-12.87s-40-3.66-49.71-6.1A16.63,16.63,0,0,1,.54,286.22,16.81,16.81,0,0,1,2.3,282,805.37,805.37,0,0,1,268,5.57Z"/></g></g></svg>