<?xml version="1.0" encoding="utf-8"?>
<!-- Generator: Adobe Illustrator 25.2.0, SVG Export Plug-In . SVG Version: 6.00 Build 0)  -->
<svg version="1.1" id="Layer_1" xmlns="http://www.w3.org/2000/svg" xmlns:xlink="http://www.w3.org/1999/xlink" x="0px" y="0px"
	 viewBox="0 0 370 407.3" style="enable-background:new 0 0 370 407.3;" xml:space="preserve">
<style type="text/css">
	.st0{display:none;}
	.st1{display:inline;}
	.st2{fill:#00CCBC;}
	.st3{display:none;fill:#211407;}
	.st4{fill:#00B0AD;}
</style>
<g id="Layer_2_1_" class="st0">
	<g id="Layer_1-2" class="st1">
		<path class="st2" d="M266.8,0l-19,179.6L215.4,28.2L114,49.6l32.4,151.4L0,232l25.8,121l257.3,54.4L342,275.9l28-265.1L266.8,0
			L266.8,0z M185.5,260.5c-5.3,4.8-12.3,4.4-19.8,1.9s-10.7-11.4-7.9-22.2c2.1-8,12-9.2,16.9-9.3c1.9,0,3.7,0.3,5.4,1.1
			c3.5,1.6,9.4,4.9,10.6,10C192.5,249.5,190.8,255.7,185.5,260.5L185.5,260.5L185.5,260.5z M260,268.9c-3.9,6.7-14,7.5-23.9,2.7
			c-6.7-3.3-6.7-11.6-5.9-16.7c0.4-2.8,1.5-5.4,3.2-7.6c2.4-3,6.4-7,11-7.1c7.5-0.2,14,3.2,17.6,9.2S263.9,262.2,260,268.9
			L260,268.9z"/>
	</g>
</g>
<rect y="-3.5" class="st3" width="370" height="410.8"/>
<g>
	<path class="st4" d="M170.7,142.2c-11.2-0.1-20.4,8.9-20.5,20.2c-0.1,11.2,9,20.4,20.2,20.5c0,0,0,0,0.1,0
		c11.2,0,20.4-9.1,20.4-20.3C190.9,151.3,181.8,142.2,170.7,142.2z"/>
	<path class="st4" d="M159.6,245.2c-10.1-0.1-18.4,8-18.6,18.1c-0.1,10.1,8,18.4,18.1,18.6c0.1,0,0.1,0,0.2,0
		c10,0.1,18.2-7.9,18.3-17.8c0-0.1,0-0.2,0-0.3C177.8,253.6,169.7,245.3,159.6,245.2z"/>
	<path class="st4" d="M241.2,142.5c-10-2-19.8,4.6-21.8,14.6h36.4C254.3,149.7,248.5,143.9,241.2,142.5z"/>
	<path class="st4" d="M292,27.1H78c-38.4,0-69.6,31.1-69.5,69.5v214c0,38.4,31.1,69.5,69.5,69.5h214c38.4,0,69.5-31.1,69.5-69.5
		v-214C361.5,58.3,330.4,27.1,292,27.1z M274.2,133.1h11.7v7.2c3-5,8.5-7.9,14.3-7.7h4.1v10.8h-5c-7.7,0-13.3,5.9-13.3,14.9v33.3
		h-11.8V133.1z M207.2,162.1c0.1-16.7,13.8-30.2,30.5-30.1c0,0,0,0-0.1,0h0.2c0,0-0.1,0-0.1,0c17.2,0,29.7,13,29.7,30.4v3.8h-48.4
		c1.6,9.7,10,16.8,19.8,16.6c6.8,0.1,13.2-3.1,17.2-8.6l8.5,6.2c-6.1,8-15.6,12.7-25.7,12.5c-17.9,0-31.7-13.1-31.7-30.5
		C207.2,162.3,207.2,162.2,207.2,162.1z M64.4,111.3h12.4v49.6c0,12.9,8.6,21.3,20.1,21.3c11.3,0,20-8.6,20-21.3v-49.6h12.3v80.3
		h-12.2v-7.5c-5.7,5.8-13.5,8.9-21.6,8.8c-17.6,0-31-12.5-31-31.5V111.3z M121.9,226.7h-42v19.7h40.9v13.2H79.9v19.8h42v13.7H64.4
		V213h57.5V226.7z M192.7,234.1v59.4h-15.2v-5.3c-5.4,4.4-12.2,6.8-19.2,6.7c-17.2,0.5-31.6-13.1-32-30.4
		c-0.5-17.2,13.1-31.6,30.4-32c0.5,0,1.1,0,1.7,0c7,0,13.9,2.4,19.3,6.9v-5.3L192.7,234.1L192.7,234.1z M171.3,193.1
		c-8,0-15.6-3.2-21.3-8.8v7.4h-11.7v-80.3h11.8v29.4c5.6-5.6,13.2-8.8,21.2-8.8c0.5,0,1.1,0,1.6,0c16.9,0.4,30.2,14.5,29.8,31.4
		C202.3,180.2,188.2,193.5,171.3,193.1z M226.8,293.4c-10.3,0-16.1-6.3-16.1-14.3v-31.6h-11.6v-13.4h11.6v-16.9h15.4v16.9h17.2v13.4
		h-17.2v27.8c0,3.1,2.3,4.7,5.8,4.7h11.5l0.1,13.4H226.8z M278,294.9c-19,0-28.5-8.2-30.7-20.6h15.4c1.9,6.6,7,8.5,15.8,8.5
		c7,0,11.3-2.3,11.3-6.1c0-2.3-1.5-3.8-7.3-4.9l-14.5-3.3c-13.3-2.8-19.5-8.4-19.5-17.1c0-12.5,11.2-19,27.1-19
		c18.5,0,27.6,8.2,28.4,20.6h-15.2c-1.5-6.6-6.9-8.5-14.1-8.5c-6.7,0-10.3,2.2-10.3,5.8c0,2.7,2.4,4.1,9.9,5.5l13,2.6
		c12.3,2.6,18.2,8.6,18.2,16.8C305.6,286.7,295.7,294.9,278,294.9z"/>
</g>
</svg>
