<?xml version="1.0" encoding="utf-8"?>
<!-- Generator: Adobe Illustrator 23.0.1, SVG Export Plug-In . SVG Version: 6.00 Build 0)  -->
<svg version="1.1" id="Layer_1" xmlns="http://www.w3.org/2000/svg" xmlns:xlink="http://www.w3.org/1999/xlink" x="0px" y="0px"
	 viewBox="0 0 380.22 92.22" style="enable-background:new 0 0 380.22 92.22;" xml:space="preserve">
<style type="text/css">
	.st0{clip-path:url(#SVGID_2_);fill:#EAEAEA;}
	.st1{clip-path:url(#SVGID_2_);fill:none;stroke:#FFFFFF;stroke-width:2;stroke-miterlimit:10;}
	.st2{fill:#FFFFFF;}
</style>
<g id="Layer_2">
</g>
<g>
	<defs>
		<rect id="SVGID_1_" x="-206.2" y="-148.04" width="800" height="400"/>
	</defs>
	<clipPath id="SVGID_2_">
		<use xlink:href="#SVGID_1_"  style="overflow:visible;"/>
	</clipPath>
	<path class="st0" d="M89.12,84.88c0.19,0.83,0.78,1.19,1.74,1.19c0.95,0,1.36-0.38,1.36-0.98c0-0.67-0.4-0.96-1.81-1.29
		c-2.25-0.53-2.81-1.35-2.81-2.46c0-1.44,1.08-2.42,3.04-2.42c2.2,0,3.07,1.18,3.19,2.39h-1.8c-0.09-0.51-0.37-1.06-1.43-1.06
		c-0.73,0-1.16,0.3-1.16,0.89c0,0.58,0.35,0.81,1.69,1.12c2.4,0.57,2.93,1.46,2.93,2.63c0,1.51-1.14,2.55-3.33,2.55
		c-2.1,0-3.2-1.03-3.4-2.54h1.79V84.88z M97.04,79.04v4.92c0,1.59,0.82,2.06,1.71,2.06c1.02,0,1.67-0.56,1.67-2.06v-4.93h1.79v4.84
		c0,2.83-1.66,3.55-3.48,3.55c-1.87,0-3.47-0.75-3.47-3.51v-4.87H97.04z M105.21,84.88c0.19,0.83,0.78,1.19,1.74,1.19
		c0.95,0,1.36-0.38,1.36-0.98c0-0.67-0.4-0.96-1.81-1.29c-2.25-0.53-2.81-1.35-2.81-2.46c0-1.44,1.08-2.42,3.04-2.42
		c2.2,0,3.07,1.18,3.19,2.39h-1.8c-0.09-0.51-0.37-1.06-1.43-1.06c-0.73,0-1.16,0.3-1.16,0.89c0,0.58,0.35,0.81,1.69,1.12
		c2.4,0.57,2.93,1.46,2.93,2.63c0,1.51-1.14,2.55-3.33,2.55c-2.1,0-3.2-1.03-3.4-2.54h1.79V84.88z M113.25,79.04v3.23h3.33v-3.23
		h1.79v8.27h-1.79v-3.58h-3.33v3.58h-1.79v-8.27H113.25z M122.14,87.3h-1.79v-8.27h1.79V87.3z M127.01,79.04h3.61
		c2,0,2.76,1.04,2.76,2.12c0,0.93-0.49,1.54-1.05,1.79c0.56,0.21,1.29,0.8,1.29,1.88c0,1.42-1.11,2.48-2.87,2.48h-3.73L127.01,79.04
		L127.01,79.04z M130.42,82.29c0.85,0,1.2-0.38,1.2-0.96c0-0.61-0.46-0.92-1.15-0.92h-1.7v1.88H130.42z M128.77,83.67v2.25h1.61
		c0.97,0,1.4-0.4,1.4-1.15c0-0.67-0.43-1.09-1.41-1.09L128.77,83.67z M136.71,85.38l-0.65,1.91h-1.76l2.81-8.27h2.25l2.93,8.27
		h-1.88l-0.68-1.91H136.71z M138.19,80.33h-0.01c-0.2,0.82-0.62,2.11-1.09,3.6h2.26C138.76,82.17,138.39,81.06,138.19,80.33
		 M145.11,84v3.31h-1.75v-8.27h3.63c1.8,0,2.77,0.99,2.77,2.27c0,1.11-0.6,1.71-1.2,1.96c0.41,0.15,1.03,0.58,1.03,2.06v0.41
		c0,0.56,0,1.19,0.12,1.58h-1.69c-0.15-0.36-0.17-0.98-0.17-1.86v-0.12c0-0.9-0.23-1.33-1.56-1.33L145.11,84L145.11,84z
		 M145.11,82.56h1.5c0.98,0,1.36-0.37,1.36-1.06c0-0.67-0.44-1.05-1.31-1.05h-1.54L145.11,82.56L145.11,82.56z"/>
	<path class="st0" d="M197.49,84.65c0,1.9-0.62,2.77-2.43,2.77c-0.31,0-0.83-0.03-1.12-0.1V85.9c0.15,0.03,0.56,0.05,0.82,0.05
		c0.82,0,0.94-0.55,0.94-1.18v-5.73h1.79V84.65z M200.79,85.39l-0.65,1.91h-1.76l2.81-8.27h2.25l2.93,8.27h-1.88l-0.68-1.91H200.79z
		 M202.27,80.33h-0.01c-0.2,0.82-0.62,2.11-1.09,3.6h2.26C202.84,82.18,202.47,81.07,202.27,80.33 M207.44,79.04h3.42
		c1.76,0,2.95,0.99,2.95,2.56c0,1.8-1.36,2.62-2.99,2.62h-1.59v3.09h-1.79V79.04z M210.59,82.79c0.83,0,1.41-0.32,1.41-1.16
		c0-0.85-0.62-1.17-1.37-1.17h-1.4v2.33H210.59z M216,85.39l-0.65,1.91h-1.76l2.81-8.27h2.25l2.93,8.27h-1.88l-0.68-1.91H216z
		 M217.47,80.33h-0.01c-0.2,0.82-0.62,2.11-1.09,3.6h2.26C218.04,82.18,217.67,81.07,217.47,80.33 M222.64,87.3v-8.27h2.22
		c1.03,1.86,2.94,5.21,3.32,6.11h0.02c-0.09-0.86-0.09-2.3-0.09-3.66v-2.45h1.62v8.27h-2.1c-0.89-1.62-3-5.46-3.41-6.42h-0.02
		c0.06,0.72,0.08,2.42,0.08,3.9v2.51L222.64,87.3L222.64,87.3z M233.45,83.73v2.1h4.36l-0.21,1.47h-5.89v-8.27h5.86v1.47h-4.13v1.77
		h3.95v1.47h-3.94V83.73z M240.45,84.88c0.19,0.83,0.78,1.19,1.74,1.19c0.95,0,1.36-0.38,1.36-0.98c0-0.67-0.4-0.96-1.81-1.29
		c-2.25-0.53-2.81-1.35-2.81-2.46c0-1.44,1.08-2.42,3.04-2.42c2.2,0,3.07,1.18,3.19,2.39h-1.8c-0.09-0.51-0.37-1.06-1.43-1.06
		c-0.73,0-1.16,0.3-1.16,0.89c0,0.58,0.35,0.81,1.69,1.12c2.4,0.57,2.93,1.46,2.93,2.63c0,1.51-1.14,2.55-3.33,2.55
		c-2.1,0-3.2-1.03-3.4-2.54h1.79V84.88z M248.44,83.73v2.1h4.36l-0.21,1.47h-5.89v-8.27h5.86v1.47h-4.13v1.77h3.95v1.47h-3.94V83.73
		z M257.02,79.04h1.77v3.69c0.54-0.64,2.25-2.5,3.29-3.69h2.14l-3.32,3.44l3.44,4.83h-2.14l-2.54-3.67l-0.87,0.83v2.84h-1.77V79.04z
		 M267,87.31h-1.79v-8.27H267V87.31z M270.74,80.5h-2.51v-1.47h6.8v1.47h-2.5v6.8h-1.79V80.5z M282.9,84.76
		c-0.33,1.54-1.5,2.67-3.57,2.67c-2.62,0-3.86-1.86-3.86-4.21c0-2.27,1.28-4.3,3.95-4.3c2.2,0,3.27,1.29,3.47,2.67h-1.79
		c-0.17-0.64-0.62-1.27-1.74-1.27c-1.47,0-2.04,1.33-2.04,2.83c0,1.4,0.49,2.87,2.09,2.87c1.17,0,1.53-0.78,1.69-1.26H282.9z
		 M286.07,79.04v3.23h3.33v-3.23h1.79v8.27h-1.79v-3.58h-3.33v3.58h-1.79v-8.27H286.07z M294.91,83.73v2.1h4.36l-0.21,1.47h-5.89
		v-8.27h5.86v1.47h-4.13v1.77h3.95v1.47h-3.94V83.73z M300.56,87.3v-8.27h2.22c1.03,1.86,2.94,5.21,3.32,6.11h0.02
		c-0.09-0.86-0.09-2.3-0.09-3.66v-2.45h1.62v8.27h-2.1c-0.89-1.62-3-5.46-3.41-6.42h-0.02c0.06,0.72,0.08,2.42,0.08,3.9v2.51
		L300.56,87.3L300.56,87.3z"/>
	<path class="st0" d="M160.35,83.11h23.67H160.35z"/>
	<line class="st1" x1="160.35" y1="83.11" x2="184.03" y2="83.11"/>
	<path class="st0" d="M316.03,83.11h23.67H316.03z"/>
	<line class="st1" x1="316.03" y1="83.11" x2="339.71" y2="83.11"/>
	<path class="st0" d="M50.1,83.11h23.67H50.1z"/>
	<line class="st1" x1="50.1" y1="83.11" x2="73.78" y2="83.11"/>
</g>
<g>
	<path class="st2" d="M51.15,8.42l-14.6,26.9v19.76H22.63V35.32L6.94,8.42h15.67l8.18,15.38l7.84-15.38H51.15z"/>
	<path class="st2" d="M80.3,55.07l-2.64-9.19h-12.5l-2.8,9.19H50.74l14.4-46.66h15.14l14.63,46.66H80.3z M67.6,35.69h7.55
		l-3.77-13.53L67.6,35.69z"/>
	<path class="st2" d="M154.14,8.42v46.66h-13.3V21.71l-8.63,33.36h-9.09l-8.97-33.36v33.36h-10.73V8.42h18.71l6.77,24.78l6.46-24.78
		H154.14z"/>
	<path class="st2" d="M192.2,55.07l-2.64-9.19h-12.5l-2.8,9.19h-11.63l14.4-46.66h15.14l14.63,46.66H192.2z M179.5,35.69h7.55
		l-3.77-13.53L179.5,35.69z"/>
	<path class="st2" d="M251.23,44.07v11.01h-38.83v-8.92l20.67-26.93h-19.1V8.42h36.61v9.06l-20.07,26.59H251.23z"/>
	<path class="st2" d="M286.39,55.07l-2.64-9.19h-12.5l-2.8,9.19h-11.63l14.4-46.66h15.14L301,55.07H286.39z M273.69,35.69h7.55
		l-3.77-13.53L273.69,35.69z"/>
	<path class="st2" d="M351.58,55.07h-15.67l-8.07-17.63L323,44.31v10.77h-13.5V8.42H323v19.29l12.87-19.29h12.87l-11.78,17.08
		L351.58,55.07z"/>
	<path class="st2" d="M373.93,8.42v46.66H359.6V8.42H373.93z"/>
</g>
</svg>
