<svg id="Layer_1" data-name="Layer 1" xmlns="http://www.w3.org/2000/svg" viewBox="0 0 375.28 90.71"><defs><style>.cls-1{fill:#eaeaea;}.cls-2{fill:none;stroke:#fff;stroke-miterlimit:10;stroke-width:2px;}.cls-3{font-size:70px;fill:#fff;font-family:FranklinGothic-Heavy, Franklin Gothic Heavy;font-weight:800;letter-spacing:0.01em;}.cls-4{letter-spacing:0.06em;}</style></defs><path class="cls-1" d="M295.32,232.92c.19.83.78,1.19,1.74,1.19s1.36-.38,1.36-1-.4-1-1.81-1.29c-2.25-.53-2.81-1.35-2.81-2.46,0-1.44,1.08-2.42,3-2.42,2.2,0,3.07,1.18,3.19,2.39h-1.8c-.09-.51-.37-1.06-1.43-1.06-.73,0-1.16.3-1.16.89s.35.81,1.69,1.12c2.4.57,2.93,1.46,2.93,2.63,0,1.51-1.14,2.55-3.33,2.55s-3.2-1-3.4-2.54h1.79Zm7.92-5.84V232c0,1.59.82,2.06,1.71,2.06s1.67-.56,1.67-2.06v-4.93h1.79v4.84c0,2.83-1.66,3.55-3.48,3.55s-3.47-.75-3.47-3.51v-4.87Zm8.17,5.84c.19.83.78,1.19,1.74,1.19s1.36-.38,1.36-1-.4-1-1.81-1.29c-2.25-.53-2.81-1.35-2.81-2.46,0-1.44,1.08-2.42,3-2.42,2.2,0,3.07,1.18,3.19,2.39h-1.8c-.09-.51-.37-1.06-1.43-1.06-.73,0-1.16.3-1.16.89s.35.81,1.69,1.12c2.4.57,2.93,1.46,2.93,2.63,0,1.51-1.14,2.55-3.33,2.55s-3.2-1-3.4-2.54h1.79Zm8-5.84v3.23h3.33v-3.23h1.79v8.27h-1.79v-3.58h-3.33v3.58h-1.79v-8.27Zm8.89,0v8.27h-1.79v-8.27Zm4.87,0h3.61c2,0,2.76,1,2.76,2.12a1.87,1.87,0,0,1-1.05,1.79,2,2,0,0,1,1.29,1.88c0,1.42-1.11,2.48-2.87,2.48h-3.73v-8.27Zm3.41,3.26c.85,0,1.2-.38,1.2-1s-.46-.92-1.15-.92H335v1.88ZM335,231.72V234h1.61c1,0,1.4-.4,1.4-1.15s-.43-1.09-1.41-1.09Zm7.94,1.71-.65,1.91H340.5l2.81-8.27h2.25l2.93,8.27h-1.88l-.68-1.91Zm1.48-5.06h0c-.2.82-.62,2.11-1.09,3.6h2.26C345,230.22,344.59,229.11,344.39,228.37Zm6.92,3.67v3.31h-1.75v-8.27h3.63c1.8,0,2.77,1,2.77,2.27a2,2,0,0,1-1.2,2c.41.15,1,.58,1,2.06v.41a6.3,6.3,0,0,0,.12,1.58h-1.69a5.71,5.71,0,0,1-.17-1.86v-.12c0-.9-.23-1.33-1.56-1.33h-1.18Zm0-1.43h1.5c1,0,1.36-.37,1.36-1.06s-.44-1.05-1.31-1.05h-1.54v2.11Z" transform="translate(-213.13 -144.77)"/><path class="cls-1" d="M403.69,232.69c0,1.9-.62,2.77-2.43,2.77a5.91,5.91,0,0,1-1.12-.1v-1.42a6.09,6.09,0,0,0,.82.05c.82,0,.94-.55.94-1.18v-5.73h1.79v5.61Zm3.3.74-.65,1.91h-1.76l2.81-8.27h2.25l2.93,8.27h-1.88l-.68-1.91Zm1.48-5.06h0c-.2.82-.62,2.11-1.09,3.6h2.26C409,230.22,408.67,229.11,408.47,228.37Zm5.17-1.29h3.42c1.76,0,2.95,1,2.95,2.56,0,1.8-1.36,2.62-3,2.62h-1.59v3.09h-1.79v-8.27Zm3.15,3.75c.83,0,1.41-.32,1.41-1.16s-.62-1.17-1.37-1.17h-1.4v2.33Zm5.41,2.6-.65,1.91h-1.76l2.81-8.27h2.25l2.93,8.27H425.9l-.68-1.91Zm1.47-5.06h0c-.2.82-.62,2.11-1.09,3.6h2.26C424.24,230.22,423.87,229.11,423.67,228.37Zm5.17,7v-8.27h2.22c1,1.86,2.94,5.21,3.32,6.11h0c-.09-.86-.09-2.3-.09-3.66v-2.45h1.62v8.27h-2.1c-.89-1.62-3-5.46-3.41-6.42h0c.06.72.08,2.42.08,3.9v2.51h-1.64Zm10.81-3.56v2.1H444l-.21,1.47h-5.89v-8.27h5.86v1.47h-4.13v1.77h3.95v1.47h-3.94Zm7,1.14c.19.83.78,1.19,1.74,1.19s1.36-.38,1.36-1-.4-1-1.81-1.29c-2.25-.53-2.81-1.35-2.81-2.46,0-1.44,1.08-2.42,3-2.42,2.2,0,3.07,1.18,3.19,2.39h-1.8c-.09-.51-.37-1.06-1.43-1.06-.73,0-1.16.3-1.16.89s.35.81,1.69,1.12c2.4.57,2.93,1.46,2.93,2.63,0,1.51-1.14,2.55-3.33,2.55s-3.2-1-3.4-2.54h1.79Zm8-1.14v2.1H459l-.21,1.47H452.9v-8.27h5.86v1.47h-4.13v1.77h3.95v1.47h-3.94Zm8.58-4.7H465v3.69c.54-.64,2.25-2.5,3.29-3.69h2.14l-3.32,3.44,3.44,4.83H468.4l-2.54-3.67-.87.83v2.84h-1.77Zm10,0v8.27h-1.79v-8.27Zm3.74,1.46h-2.51v-1.47h6.8v1.47h-2.5v6.8h-1.79v-6.8Zm12.16,4.26a3.32,3.32,0,0,1-3.57,2.67c-2.62,0-3.86-1.86-3.86-4.21s1.28-4.3,3.95-4.3a3.16,3.16,0,0,1,3.47,2.67H487.3a1.62,1.62,0,0,0-1.74-1.27c-1.47,0-2,1.33-2,2.83s.49,2.87,2.09,2.87a1.64,1.64,0,0,0,1.69-1.26Zm3.17-5.72v3.23h3.33v-3.23h1.79v8.27H495.6v-3.58h-3.33v3.58h-1.79v-8.27Zm8.84,4.7v2.1h4.36l-.21,1.47h-5.89v-8.27h5.86v1.47H501.1v1.77h3.95v1.47h-3.94Zm5.65,3.56v-8.27H509c1,1.86,2.94,5.21,3.32,6.11h0c-.09-.86-.09-2.3-.09-3.66v-2.45h1.62v8.27h-2.1c-.89-1.62-3-5.46-3.41-6.42h0c.06.72.08,2.42.08,3.9v2.51h-1.64Z" transform="translate(-213.13 -144.77)"/><path class="cls-1" d="M366.55,231.16h0Z" transform="translate(-213.13 -144.77)"/><line class="cls-2" x1="153.42" y1="86.39" x2="177.1" y2="86.39"/><path class="cls-1" d="M522.23,231.16h0Z" transform="translate(-213.13 -144.77)"/><line class="cls-2" x1="309.1" y1="86.39" x2="332.78" y2="86.39"/><path class="cls-1" d="M256.3,231.16h0Z" transform="translate(-213.13 -144.77)"/><line class="cls-2" x1="43.17" y1="86.39" x2="66.85" y2="86.39"/><text class="cls-3" transform="translate(1.42 58.34)">Y<tspan class="cls-4" x="42.17" y="0">AMAZAKI</tspan></text></svg>